<svg version="1.1" id="Слой_1" xmlns="http://www.w3.org/2000/svg" width="370" height="101.8" x="0" y="0" xml:space="preserve"><style>.st0{fill:#fff}</style><path class="st0" d="M119.9 12.4c7.1-2.5 7.7-11.4.6-11.4-1.9 0-4.3 1.4-5.9 4.2L105 21.7c-.4.8-.9 1.4-1.4 2-2.5-3.4-1.7-8.4 1.7-10.7l-1.4-1.8c-7.5 4.8-5.3 18.5 7.2 18.5 10.7 0 15.6-12.8 8.8-17.3zM111.1 27c-2.1 0-3.8-.5-5.1-1.2.6-.7 1.2-1.6 1.8-2.5l6-10.4 1 .1c8.2 1.7 4.9 14-3.7 14zm3.8-16.3l2.9-4.9c2.6-4.5 5.9-1.8 4.1 1.5-1.4 2.6-3.4 3.4-7 3.4zm144.3 9.2l-.2.3c-2 2.3-4.3 4.2-6.5 5 .6-.9 1-1.9 1.5-2.7l3.9-6.7c3.3-5.6-2.1-7.5-5.7-4.3l.7-1.2h-3.6l-5.6 9.7-.2.3c-1.6 1.7-3.6 2.6-5.4 2.6l3.4-5.8c2.2-3.7.2-7.3-3.2-7.3-2.7 0-4.9 1.1-6.9 4.7l-1.7 3-1.5 2.5-.2.2c-2.6 3-5.1 5.3-6.6 5.3-.8 0-1.2-.5-.4-2l5.1-9c1.5-2.7.1-4.7-1.9-4.7-1.5 0-3.2.9-5 2.7l5.7-9.9h-3.6l-9.9 17.2-.2.2c-1.3 1.5-2.9 2.9-4.3 3.9 1.1-3.4.9-8.6 3.1-13.1l-2.7-1.4c-1.5 2-4.7 6.7-7.9 10.4l-.2.3c-2.6 3-5.1 5.3-6.6 5.3-.8 0-1.2-.5-.4-2l3.6-6.2c1.2-2.2.6-3.4-.5-4.8l-2-2.4c-.5-.6-.5-1.4.2-2.1l-1.8-2c-2 1.8-2.2 3.8-.9 5.5l.3.4c-1.6 2.2-3.7 5.2-6 8l-.2.3c-2.6 3-5.9 5.3-8.3 5.3-2.2 0-3.5-1.4-1.8-4.2l.3-.6c2.3 1 6.6.5 9.3-4.1l.5-.9c1.9-3.3.1-5.7-2.8-5.7s-5.2 1.5-6.7 4.1l-3.4 5.9-.2.2c-1.6 1.8-3.6 2.6-5.4 2.6l3.4-5.8c.9-1.6 1.3-2.9 1.3-4.1 0-1.8-1.2-3.2-3.2-3.2-.9 0-1.6.3-2.3.8l4.5-7.8h-3.6l-10 17.2-.2.2c-2.6 3-5.1 5.3-6.6 5.3-.8 0-1.2-.5-.4-2l3.6-6.2c1.2-2.2.6-3.4-.5-4.8l-2-2.4c-.5-.6-.5-1.4.2-2.1l-1.8-2c-2 1.8-2.2 3.8-.9 5.5l.3.4c-1.6 2.2-3.7 5.2-6 8l-.2.3c-2.6 3-5.1 5.3-6.6 5.3-.8 0-1.2-.5-.4-2l5.8-10.1h-2c.1-1.5-1.4-3.6-3.7-3.6-1.9 0-4.6 1.5-6.1 4.1l-5 8.6c-1.5 2.6-.4 5.1 2.4 5.1 1.4 0 3.2-.9 4.9-2.3.2 1.4 1.3 2.3 3.1 2.3 2.9 0 6.3-3.1 9.3-6.6 1.7-2 3-3.8 5.9-7.6l.5.6c.4.6.6 1.3.2 2l-3.8 6.5c-1.5 2.6-.4 5.1 2.4 5.1 2.1 0 4.3-1.5 6.5-3.7 0 2.4 1.8 3.8 4.1 3.8 2 0 4.3-1 6.1-3.3h.8c1.3 0 3.1-.5 4.7-1.4-.2 2.6 1.7 4.5 4.8 4.5 4 0 8-3.1 11-6.6 1.7-2 3-3.8 5.9-7.6l.5.6c.4.6.6 1.3.2 2l-3.8 6.5c-1.5 2.6-.4 5.1 2.4 5.1 2.9 0 6.3-3.1 9.3-6.6 2-2.3 3.8-4.8 5.1-6.5-1.4 3.7-.6 10.3-4 10.3-1.2 0-1.7-1.3-1.7-1.3l-2.2 1.2s.6 2.9 3.9 2.9c.3 0 .6 0 1-.1h.1c1.9-.2 3.7-1.1 5.5-2.4l-1.2 2.1h3.6l5.4-9.4c5.5-6.9 7.9-6 6.4-3.4l-4.6 8c-1.5 2.6-.4 5.1 2.4 5.1 2.1 0 4.4-1.6 6.6-3.7 0 4.5 6.3 5.4 10.1.6h.8c1.1 0 2.5-.3 3.8-.9l-6.5 11.2h3.6l10.6-18.5c4-5.4 6.5-3.4 5.5-1.8l-5.4 9.3c-.6 1-1.9 1.3-2.6 0l-2 1s.6 2.9 3.9 2.9h.2c5.2-.1 8.6-3.2 11.5-6.6-.9-.1-1.5-.7-2-.8zm-81-5c2.1-3.5 5.7-2.9 3.6.8l-.5.9c-1.7 2.9-4 2.8-5.3 2.4l2.2-4.1zm-45.6 5.6c-2.2 3.4-4.3 5-5.8 5-.8 0-1.2-.5-.4-2l5-8.7c1.9-3.3 5.7-2.5 4 .8l-2.8 4.9zm26.8 4.9c-.8 0-1.4-.5-1.4-1.4 0-.5.2-1.1.6-1.8l1.3-2.2c.3 1.5 1 2.9 2.3 3.7-.8 1.1-1.9 1.7-2.8 1.7zm3.7-3.5c-.9-.7-1.5-1.8-1.5-3.2 0-2.5 2.5-6.7 4.5-6.7.8 0 1.3.6 1.3 1.5 0 .6-.2 1.3-.7 2.1l-3.6 6.3zm73.1-1.8h-.2c-1.2 0-2.1 1-2.1 2.1 0 .4.1.9.3 1.2v.1c-1.7 2.9-5.7 2.3-3.6-1.4l2.7-4.7 1.7-2.9c2.5-4.2 5.9-2.6 3.8 1.1l-2.6 4.5zM11.4 74.2l-5.7 5.7L0 74.2l5.7-5.7 5.7 5.7zm346.3-5.7l5.7 5.7-5.7 5.7-5.7-5.7 5.7-5.7z"/><path d="M46.8 64v10.4h2.1v-8.3h3.3V64h-5.4zm14.9 12V63.3c0-1.8-1.1-3.3-2.6-4.1.3.6.5 1.3.5 2v12.7c0 1.4-.6 2.6-1.7 3.5.9 1 1.7 2.1 1.7 3.7v14.1c0 2.5-2.1 4.6-4.6 4.6H41.5v2.1h15.6c2.5 0 4.6-2.1 4.6-4.6V83.2c0-1.6-.7-2.7-1.7-3.7 1.1-.9 1.7-2.1 1.7-3.5zm-14.9 5.8v10.5h2.1v-8.4h3.3v-2.1h-5.4zm33-17.8v28.3h2.1V66.1h3.3V64h-5.4zm12.3-4.8c.3.6.5 1.3.5 2v34c0 2.5-2.1 4.6-4.6 4.6H77c-.7 0-1.4-.2-2-.5.7 1.5 2.3 2.6 4.1 2.6h11.1c2.5 0 4.6-2.1 4.6-4.6v-34c-.1-1.8-1.2-3.4-2.7-4.1zm20.7 4.8v10.4h2.1v-8.3h3.3V64h-5.4zm12.3 19.5c1.6-.7 2.6-2.3 2.6-4.1V63.3c0-1.8-1.1-3.4-2.6-4.1.3.6.5 1.3.5 2v16.1c0 1.7-1 3.3-2.6 4.1l3.1 18.4h-5.7l.4 2.1h7.4l-3.1-18.4zm-17.6 16.2v2.1h7.4V83.9h1.1l-.3-2.1h-2.8v17.9h-5.4zM144.8 64v28.3h2.1V66.1h3.3V64h-5.4zm12.4-4.8c.3.6.5 1.3.5 2v34c0 2.5-2.1 4.6-4.6 4.6H142c-.7 0-1.4-.2-2-.5.7 1.5 2.3 2.6 4.1 2.6h11.1c2.5 0 4.6-2.1 4.6-4.6v-34c-.1-1.8-1.1-3.4-2.6-4.1zm20.7 4.8v28.3h2.1V66.1h3.3V64h-5.4zm12.3-4.8c.3.6.5 1.3.5 2v34c0 2.5-2.1 4.6-4.6 4.6h-13.6v2.1h15.6c2.5 0 4.6-2.1 4.6-4.6v-34c.1-1.8-1-3.4-2.5-4.1zm15.7 42.6h7.4V58.7h-2.1v41h-5.3v2.1zm40.3-43.1h-2.1v41h-5.9l.6 2.1h7.4V58.7zm-12.8 29.4l-2.1-7.2v18.8H226v2.1h7.4V88.1zm30.2-4.2h6.1v-2.1h-8.2c-.7 0-1.4-.2-2-.5.7 1.6 2.3 2.6 4.1 2.6zm.7 3.3v5.1h2.1v-5.6l-2.1.5zm12.4-28c.3.6.5 1.3.5 2v8.7l-5.4 1.2v2.6l7.5-1.7v-8.7c-.1-1.8-1.1-3.3-2.6-4.1zm0 17.8c.3.6.5 1.3.5 2v16.2c0 2.5-2.1 4.6-4.6 4.6h-11.1c-.7 0-1.4-.2-2-.5.7 1.5 2.3 2.6 4.1 2.6h11.1c2.5 0 4.6-2.1 4.6-4.6V81.1c-.1-1.8-1.1-3.4-2.6-4.1zm-10.3-10.9h3.3V64h-5.4v10.4h2.1v-8.3zm30.9 33.6H292v2.1h7.4V86.3l-1.4-4.5h-.7v17.9zm15.9-41h-2.8l-6.2 19.4 6.9 21.6h-6l.6 1.8.1.2h7.5l-6.9-21.6 6.8-21.4zm19.4 43.1V58.7h-2.1v41h-5.3v2.1h7.4zm29.1-17.9l5.7-5.7 2.1 2.1-5.7 5.7-2.1-2.1zm-352 0l5.7-5.7 2.1 2.1-5.7 5.7-2.1-2.1z" fill="#636466"/><path class="st0" d="M55.7 69.9c0 1.4-.6 2.6-1.7 3.5.9 1 1.7 2.1 1.7 3.7v14.1c0 2.5-2.1 4.6-4.6 4.6H35.5V52.7h15.6c2.5 0 4.6 2 4.6 4.6v12.6zm-7.5-9.8h-5.4v10.4h5.4V60.1zm0 17.8h-5.4v10.5h5.4V77.9zm35.9-25.2c2.5 0 4.6 2 4.6 4.6v34c0 2.5-2.1 4.6-4.6 4.6H73c-2.5 0-4.6-2.1-4.6-4.6v-34c0-2.5 2-4.6 4.6-4.6h11.1zm-2.9 7.4h-5.4v28.3h5.4V60.1zm33.5 35.7l-3-17.9h-2.8v17.9h-7.4V52.7h15.6c2.5 0 4.5 2 4.5 4.6v16.1c0 1.7-1 3.3-2.6 4.1l3.1 18.3h-7.4zm-.5-35.7h-5.4v10.4h5.4V60.1zm34.9-7.4c2.5 0 4.6 2 4.6 4.6v34c0 2.5-2.1 4.6-4.6 4.6H138c-2.5 0-4.6-2.1-4.6-4.6v-34c0-2.5 2-4.6 4.6-4.6h11.1zm-2.9 7.4h-5.4v28.3h5.4V60.1zm36-7.4c2.5 0 4.6 2 4.6 4.6v34c0 2.5-2.1 4.6-4.6 4.6h-15.6V52.7h15.6zm-2.9 7.4h-5.4v28.3h5.4V60.1zm20.6-7.4h7.4v43.1h-7.4V52.7zm40.3 0v43.1h-7.4L227.4 77v18.8H220V52.7h7.3l5.4 17.7V52.7h7.5zm28.4 17.8c2.5 0 4.6 2 4.6 4.6v16.2c0 2.5-2.1 4.6-4.6 4.6h-11.1c-2.5 0-4.6-2.1-4.6-4.6v-8.9l7.4-1.7v7.7h5.4V77.9h-8.2c-2.5 0-4.6-2-4.6-4.6V57.2c0-2.5 2-4.6 4.6-4.6h11.1c2.5 0 4.6 2 4.6 4.6V66l-7.5 1.7v-7.6h-5.4v10.4h8.3zm31.6 3.7l6.9 21.6h-7.5l-.1-.2-5.5-17.7h-.7v17.9H286V52.7h7.4v17.8h.6l5.7-17.8h7.5l-7 21.5zm19-21.5h7.4v43.1h-7.4V52.7z"/></svg>