<svg version="1.1" xmlns="http://www.w3.org/2000/svg" xmlns:xlink="http://www.w3.org/1999/xlink">
  <symbol viewBox="0 0 16 16" id="icon-login">
    <polygon points="0 7 7.01 7 7.01 4.06 10.96 8.01 7.01 11.91 7.01 9.06 0 9.02 0 7" />
    <polygon points="7.01 0 7.01 2 14.03 2 14.03 13.99 7.01 13.99 7.01 16 16 16 16 0 7.01 0" />
  </symbol>
  <symbol viewBox="0 0 192 192" id="icon-comb">
    <path d="m48 32h96v16h-96z" />
    <path d="m48 144h96v16h-96z" />
    <path d="m59.35 168a39.984 39.984 0 0 0 73.3 0z" />
    <path d="m96 0a40.051 40.051 0 0 0 -36.65 24h73.3a40.051 40.051 0 0 0 -36.65-24z" />
    <path d="m136 40a8 8 0 0 0 -5.959-7.727l-74.041 74.041v22.372l80-80z" />
    <path d="m136 71.314-80 80v.686a8 8 0 0 0 8 8h5.686l66.314-66.314z" />
    <path d="m64 32a8 8 0 0 0 -8 8v43.686l51.686-51.686z" />
    <path d="m92.314 160h35.686a8 8 0 0 0 8-8v-35.686z" />
  </symbol>
</svg>